<svg xmlns="http://www.w3.org/2000/svg" xmlns:xlink="http://www.w3.org/1999/xlink" width="50" zoomAndPan="magnify" viewBox="0 0 37.5 37.499999" height="50" preserveAspectRatio="xMidYMid meet" version="1.0"><defs><clipPath id="f72c07eec1"><path d="M 1.851562 1.851562 L 35.15625 1.851562 L 35.15625 35.15625 L 1.851562 35.15625 Z M 1.851562 1.851562 " clip-rule="nonzero"/></clipPath></defs><g clip-path="url(#f72c07eec1)"><path fill="#e52d27" d="M 35.15625 30.09375 C 35.15625 32.886719 32.886719 35.15625 30.09375 35.15625 L 6.910156 35.15625 C 4.121094 35.15625 1.851562 32.886719 1.851562 30.09375 L 1.851562 6.910156 C 1.851562 4.121094 4.121094 1.851562 6.910156 1.851562 L 30.09375 1.851562 C 32.886719 1.851562 35.15625 4.121094 35.15625 6.910156 Z M 35.15625 30.09375 " fill-opacity="1" fill-rule="nonzero"/></g><path fill="#ffffff" d="M 30.308594 18.765625 C 30.308594 20.609375 30.308594 22.558594 29.898438 24.34375 C 29.609375 25.601562 28.582031 26.519531 27.34375 26.660156 C 24.417969 26.984375 21.453125 26.992188 18.507812 26.984375 C 15.550781 26.984375 12.597656 26.984375 9.667969 26.660156 C 8.433594 26.519531 7.402344 25.601562 7.113281 24.34375 C 6.703125 22.558594 6.703125 20.609375 6.703125 18.765625 C 6.703125 16.925781 6.710938 14.972656 7.113281 13.191406 C 7.402344 11.933594 8.429688 11.011719 9.667969 10.875 C 12.597656 10.542969 15.558594 10.542969 18.507812 10.542969 C 21.453125 10.542969 24.414062 10.542969 27.34375 10.875 C 28.578125 11.011719 29.609375 11.933594 29.898438 13.191406 C 30.308594 14.972656 30.308594 16.925781 30.308594 18.765625 Z M 30.308594 18.765625 " fill-opacity="1" fill-rule="nonzero"/><path fill="#e52d27" d="M 16.023438 14.378906 L 16.023438 23.195312 L 22.871094 18.785156 Z M 16.023438 14.378906 " fill-opacity="1" fill-rule="nonzero"/></svg>